<svg width="20" height="20" xmlns="http://www.w3.org/2000/svg" shape-rendering="crispEdges"><path fill="#13121D" d="M4 4h1v1H4zM5 4h1v1H5zM14 4h1v1h-1zM15 4h1v1h-1zM3 5h1v1H3zM4 5h1v1H4zM5 5h1v1H5zM6 5h1v1H6zM7 5h1v1H7zM8 5h1v1H8zM9 5h1v1H9zM10 5h1v1h-1zM11 5h1v1h-1zM12 5h1v1h-1zM13 5h1v1h-1zM14 5h1v1h-1zM15 5h1v1h-1zM16 5h1v1h-1zM3 6h1v1H3zM4 6h1v1H4z"/><path fill="#696A6A" d="M5 6h1v1H5zM6 6h1v1H6z"/><path fill="#13121D" d="M7 6h1v1H7zM8 6h1v1H8zM9 6h1v1H9zM10 6h1v1h-1zM11 6h1v1h-1zM12 6h1v1h-1zM13 6h1v1h-1z"/><path fill="#FBF236" d="M14 6h1v1h-1z"/><path fill="#13121D" d="M15 6h1v1h-1zM16 6h1v1h-1zM3 7h1v1H3zM4 7h1v1H4z"/><path fill="#696A6A" d="M5 7h1v1H5zM6 7h1v1H6z"/><path fill="#13121D" d="M7 7h1v1H7zM8 7h1v1H8zM9 7h1v1H9zM10 7h1v1h-1zM11 7h1v1h-1zM12 7h1v1h-1z"/><path fill="#2919D6" d="M13 7h1v1h-1z"/><path fill="#13121D" d="M14 7h1v1h-1z"/><path fill="#AC3232" d="M15 7h1v1h-1z"/><path fill="#13121D" d="M16 7h1v1h-1zM3 8h1v1H3zM4 8h1v1H4zM5 8h1v1H5zM6 8h1v1H6zM7 8h1v1H7zM8 8h1v1H8zM9 8h1v1H9zM10 8h1v1h-1zM11 8h1v1h-1zM12 8h1v1h-1zM13 8h1v1h-1z"/><path fill="#6ABE30" d="M14 8h1v1h-1z"/><path fill="#13121D" d="M15 8h1v1h-1zM16 8h1v1h-1zM2 9h1v1H2zM3 9h1v1H3zM4 9h1v1H4zM5 9h1v1H5z"/><path fill="#696A6A" d="M6 9h1v1H6z"/><path fill="#13121D" d="M7 9h1v1H7zM8 9h1v1H8zM9 9h1v1H9zM10 9h1v1h-1zM11 9h1v1h-1zM12 9h1v1h-1zM13 9h1v1h-1zM14 9h1v1h-1zM15 9h1v1h-1zM16 9h1v1h-1zM17 9h1v1h-1zM2 10h1v1H2zM3 10h1v1H3zM4 10h1v1H4z"/><path fill="#696A6A" d="M5 10h1v1H5zM6 10h1v1H6zM7 10h1v1H7z"/><path fill="#13121D" d="M8 10h1v1H8zM9 10h1v1H9zM10 10h1v1h-1zM11 10h1v1h-1z"/><path fill="#696A6A" d="M12 10h1v1h-1zM13 10h1v1h-1z"/><path fill="#13121D" d="M14 10h1v1h-1zM15 10h1v1h-1zM16 10h1v1h-1zM17 10h1v1h-1zM2 11h1v1H2zM3 11h1v1H3zM4 11h1v1H4zM5 11h1v1H5z"/><path fill="#696A6A" d="M6 11h1v1H6z"/><path fill="#13121D" d="M7 11h1v1H7zM8 11h1v1H8zM9 11h1v1H9zM10 11h1v1h-1zM11 11h1v1h-1z"/><path fill="#696A6A" d="M12 11h1v1h-1zM13 11h1v1h-1z"/><path fill="#13121D" d="M14 11h1v1h-1zM15 11h1v1h-1zM16 11h1v1h-1zM17 11h1v1h-1zM2 12h1v1H2zM3 12h1v1H3zM4 12h1v1H4zM5 12h1v1H5zM6 12h1v1H6zM7 12h1v1H7zM8 12h1v1H8zM9 12h1v1H9zM10 12h1v1h-1zM11 12h1v1h-1zM12 12h1v1h-1zM13 12h1v1h-1zM14 12h1v1h-1zM15 12h1v1h-1zM16 12h1v1h-1zM17 12h1v1h-1zM2 13h1v1H2zM3 13h1v1H3zM4 13h1v1H4zM5 13h1v1H5zM6 13h1v1H6zM7 13h1v1H7zM12 13h1v1h-1zM13 13h1v1h-1zM14 13h1v1h-1zM15 13h1v1h-1zM16 13h1v1h-1zM17 13h1v1h-1zM2 14h1v1H2zM3 14h1v1H3zM4 14h1v1H4zM5 14h1v1H5zM6 14h1v1H6zM13 14h1v1h-1zM14 14h1v1h-1zM15 14h1v1h-1zM16 14h1v1h-1zM17 14h1v1h-1zM2 15h1v1H2zM3 15h1v1H3zM4 15h1v1H4zM5 15h1v1H5zM6 15h1v1H6zM13 15h1v1h-1zM14 15h1v1h-1zM15 15h1v1h-1zM16 15h1v1h-1zM17 15h1v1h-1zM2 16h1v1H2zM3 16h1v1H3zM4 16h1v1H4zM5 16h1v1H5zM14 16h1v1h-1zM15 16h1v1h-1zM16 16h1v1h-1zM17 16h1v1h-1zM3 17h1v1H3zM4 17h1v1H4zM5 17h1v1H5zM14 17h1v1h-1zM15 17h1v1h-1zM16 17h1v1h-1z"/></svg>