<svg width="20" height="20" xmlns="http://www.w3.org/2000/svg" shape-rendering="crispEdges"><path fill="#AC3232" d="M1 2h1v1H1zM2 2h1v1H2z"/><path fill="#FFF" d="M3 2h1v1H3z"/><path fill="#2818D1" d="M4 2h1v1H4zM5 2h1v1H5zM6 2h1v1H6zM7 2h1v1H7z"/><path fill="#FFF" d="M8 2h1v1H8z"/><path fill="#AC3232" d="M9 2h1v1H9zM10 2h1v1h-1z"/><path fill="#FFF" d="M11 2h1v1h-1z"/><path fill="#2818D1" d="M12 2h1v1h-1zM13 2h1v1h-1zM14 2h1v1h-1zM15 2h1v1h-1z"/><path fill="#FFF" d="M16 2h1v1h-1z"/><path fill="#AC3232" d="M17 2h1v1h-1zM18 2h1v1h-1zM1 3h1v1H1zM2 3h1v1H2zM3 3h1v1H3z"/><path fill="#FFF" d="M4 3h1v1H4z"/><path fill="#2818D1" d="M5 3h1v1H5zM6 3h1v1H6zM7 3h1v1H7z"/><path fill="#FFF" d="M8 3h1v1H8z"/><path fill="#AC3232" d="M9 3h1v1H9zM10 3h1v1h-1z"/><path fill="#FFF" d="M11 3h1v1h-1z"/><path fill="#2818D1" d="M12 3h1v1h-1zM13 3h1v1h-1zM14 3h1v1h-1z"/><path fill="#FFF" d="M15 3h1v1h-1z"/><path fill="#AC3232" d="M16 3h1v1h-1zM17 3h1v1h-1zM18 3h1v1h-1z"/><path fill="#FFF" d="M1 4h1v1H1z"/><path fill="#AC3232" d="M2 4h1v1H2zM3 4h1v1H3zM4 4h1v1H4z"/><path fill="#FFF" d="M5 4h1v1H5z"/><path fill="#2818D1" d="M6 4h1v1H6zM7 4h1v1H7z"/><path fill="#FFF" d="M8 4h1v1H8z"/><path fill="#AC3232" d="M9 4h1v1H9zM10 4h1v1h-1z"/><path fill="#FFF" d="M11 4h1v1h-1z"/><path fill="#2818D1" d="M12 4h1v1h-1zM13 4h1v1h-1z"/><path fill="#FFF" d="M14 4h1v1h-1z"/><path fill="#AC3232" d="M15 4h1v1h-1zM16 4h1v1h-1zM17 4h1v1h-1z"/><path fill="#FFF" d="M18 4h1v1h-1z"/><path fill="#2818D1" d="M1 5h1v1H1z"/><path fill="#FFF" d="M2 5h1v1H2z"/><path fill="#AC3232" d="M3 5h1v1H3zM4 5h1v1H4zM5 5h1v1H5z"/><path fill="#FFF" d="M6 5h1v1H6zM7 5h1v1H7zM8 5h1v1H8z"/><path fill="#AC3232" d="M9 5h1v1H9zM10 5h1v1h-1z"/><path fill="#FFF" d="M11 5h1v1h-1zM12 5h1v1h-1zM13 5h1v1h-1z"/><path fill="#AC3232" d="M14 5h1v1h-1zM15 5h1v1h-1zM16 5h1v1h-1z"/><path fill="#FFF" d="M17 5h1v1h-1z"/><path fill="#2818D1" d="M18 5h1v1h-1zM1 6h1v1H1zM2 6h1v1H2z"/><path fill="#FFF" d="M3 6h1v1H3z"/><path fill="#AC3232" d="M4 6h1v1H4zM5 6h1v1H5zM6 6h1v1H6zM7 6h1v1H7z"/><path fill="#FFF" d="M8 6h1v1H8z"/><path fill="#AC3232" d="M9 6h1v1H9zM10 6h1v1h-1z"/><path fill="#FFF" d="M11 6h1v1h-1z"/><path fill="#AC3232" d="M12 6h1v1h-1zM13 6h1v1h-1zM14 6h1v1h-1zM15 6h1v1h-1z"/><path fill="#FFF" d="M16 6h1v1h-1z"/><path fill="#2818D1" d="M17 6h1v1h-1zM18 6h1v1h-1zM1 7h1v1H1zM2 7h1v1H2zM3 7h1v1H3z"/><path fill="#FFF" d="M4 7h1v1H4zM5 7h1v1H5z"/><path fill="#AC3232" d="M6 7h1v1H6zM7 7h1v1H7zM8 7h1v1H8zM9 7h1v1H9zM10 7h1v1h-1zM11 7h1v1h-1zM12 7h1v1h-1zM13 7h1v1h-1z"/><path fill="#FFF" d="M14 7h1v1h-1zM15 7h1v1h-1z"/><path fill="#2818D1" d="M16 7h1v1h-1zM17 7h1v1h-1zM18 7h1v1h-1z"/><path fill="#FFF" d="M1 8h1v1H1zM2 8h1v1H2zM3 8h1v1H3zM4 8h1v1H4zM5 8h1v1H5zM6 8h1v1H6z"/><path fill="#AC3232" d="M7 8h1v1H7zM8 8h1v1H8zM9 8h1v1H9zM10 8h1v1h-1zM11 8h1v1h-1zM12 8h1v1h-1z"/><path fill="#FFF" d="M13 8h1v1h-1zM14 8h1v1h-1zM15 8h1v1h-1zM16 8h1v1h-1zM17 8h1v1h-1zM18 8h1v1h-1z"/><path fill="#AC3232" d="M1 9h1v1H1zM2 9h1v1H2zM3 9h1v1H3zM4 9h1v1H4zM5 9h1v1H5zM6 9h1v1H6zM7 9h1v1H7zM8 9h1v1H8zM9 9h1v1H9zM10 9h1v1h-1zM11 9h1v1h-1zM12 9h1v1h-1zM13 9h1v1h-1zM14 9h1v1h-1zM15 9h1v1h-1zM16 9h1v1h-1zM17 9h1v1h-1zM18 9h1v1h-1zM1 10h1v1H1zM2 10h1v1H2zM3 10h1v1H3zM4 10h1v1H4zM5 10h1v1H5zM6 10h1v1H6zM7 10h1v1H7zM8 10h1v1H8zM9 10h1v1H9zM10 10h1v1h-1zM11 10h1v1h-1zM12 10h1v1h-1zM13 10h1v1h-1zM14 10h1v1h-1zM15 10h1v1h-1zM16 10h1v1h-1zM17 10h1v1h-1zM18 10h1v1h-1z"/><path fill="#FFF" d="M1 11h1v1H1zM2 11h1v1H2zM3 11h1v1H3zM4 11h1v1H4zM5 11h1v1H5zM6 11h1v1H6z"/><path fill="#AC3232" d="M7 11h1v1H7zM8 11h1v1H8zM9 11h1v1H9zM10 11h1v1h-1zM11 11h1v1h-1zM12 11h1v1h-1z"/><path fill="#FFF" d="M13 11h1v1h-1zM14 11h1v1h-1zM15 11h1v1h-1zM16 11h1v1h-1zM17 11h1v1h-1zM18 11h1v1h-1z"/><path fill="#2818D1" d="M1 12h1v1H1zM2 12h1v1H2zM3 12h1v1H3z"/><path fill="#FFF" d="M4 12h1v1H4zM5 12h1v1H5z"/><path fill="#AC3232" d="M6 12h1v1H6zM7 12h1v1H7zM8 12h1v1H8zM9 12h1v1H9zM10 12h1v1h-1zM11 12h1v1h-1zM12 12h1v1h-1zM13 12h1v1h-1z"/><path fill="#FFF" d="M14 12h1v1h-1zM15 12h1v1h-1z"/><path fill="#2818D1" d="M16 12h1v1h-1zM17 12h1v1h-1zM18 12h1v1h-1zM1 13h1v1H1zM2 13h1v1H2z"/><path fill="#FFF" d="M3 13h1v1H3z"/><path fill="#AC3232" d="M4 13h1v1H4zM5 13h1v1H5zM6 13h1v1H6zM7 13h1v1H7z"/><path fill="#FFF" d="M8 13h1v1H8z"/><path fill="#AC3232" d="M9 13h1v1H9zM10 13h1v1h-1z"/><path fill="#FFF" d="M11 13h1v1h-1z"/><path fill="#AC3232" d="M12 13h1v1h-1zM13 13h1v1h-1zM14 13h1v1h-1zM15 13h1v1h-1z"/><path fill="#FFF" d="M16 13h1v1h-1z"/><path fill="#2818D1" d="M17 13h1v1h-1zM18 13h1v1h-1zM1 14h1v1H1z"/><path fill="#FFF" d="M2 14h1v1H2z"/><path fill="#AC3232" d="M3 14h1v1H3zM4 14h1v1H4zM5 14h1v1H5z"/><path fill="#FFF" d="M6 14h1v1H6zM7 14h1v1H7zM8 14h1v1H8z"/><path fill="#AC3232" d="M9 14h1v1H9zM10 14h1v1h-1z"/><path fill="#FFF" d="M11 14h1v1h-1zM12 14h1v1h-1zM13 14h1v1h-1z"/><path fill="#AC3232" d="M14 14h1v1h-1zM15 14h1v1h-1zM16 14h1v1h-1z"/><path fill="#FFF" d="M17 14h1v1h-1z"/><path fill="#2818D1" d="M18 14h1v1h-1z"/><path fill="#FFF" d="M1 15h1v1H1z"/><path fill="#AC3232" d="M2 15h1v1H2zM3 15h1v1H3zM4 15h1v1H4z"/><path fill="#FFF" d="M5 15h1v1H5z"/><path fill="#2818D1" d="M6 15h1v1H6zM7 15h1v1H7z"/><path fill="#FFF" d="M8 15h1v1H8z"/><path fill="#AC3232" d="M9 15h1v1H9zM10 15h1v1h-1z"/><path fill="#FFF" d="M11 15h1v1h-1z"/><path fill="#2818D1" d="M12 15h1v1h-1zM13 15h1v1h-1z"/><path fill="#FFF" d="M14 15h1v1h-1z"/><path fill="#AC3232" d="M15 15h1v1h-1zM16 15h1v1h-1zM17 15h1v1h-1z"/><path fill="#FFF" d="M18 15h1v1h-1z"/><path fill="#AC3232" d="M1 16h1v1H1zM2 16h1v1H2zM3 16h1v1H3z"/><path fill="#FFF" d="M4 16h1v1H4z"/><path fill="#2818D1" d="M5 16h1v1H5zM6 16h1v1H6zM7 16h1v1H7z"/><path fill="#FFF" d="M8 16h1v1H8z"/><path fill="#AC3232" d="M9 16h1v1H9zM10 16h1v1h-1z"/><path fill="#FFF" d="M11 16h1v1h-1z"/><path fill="#2818D1" d="M12 16h1v1h-1zM13 16h1v1h-1zM14 16h1v1h-1z"/><path fill="#FFF" d="M15 16h1v1h-1z"/><path fill="#AC3232" d="M16 16h1v1h-1zM17 16h1v1h-1zM18 16h1v1h-1zM1 17h1v1H1zM2 17h1v1H2z"/><path fill="#FFF" d="M3 17h1v1H3z"/><path fill="#2818D1" d="M4 17h1v1H4zM5 17h1v1H5zM6 17h1v1H6zM7 17h1v1H7z"/><path fill="#FFF" d="M8 17h1v1H8z"/><path fill="#AC3232" d="M9 17h1v1H9zM10 17h1v1h-1z"/><path fill="#FFF" d="M11 17h1v1h-1z"/><path fill="#2818D1" d="M12 17h1v1h-1zM13 17h1v1h-1zM14 17h1v1h-1zM15 17h1v1h-1z"/><path fill="#FFF" d="M16 17h1v1h-1z"/><path fill="#AC3232" d="M17 17h1v1h-1zM18 17h1v1h-1z"/></svg>