<svg width="40" height="40" xmlns="http://www.w3.org/2000/svg" shape-rendering="crispEdges"><path d="M16 0h2v2h-2zM18 0h2v2h-2zM20 0h2v2h-2zM22 0h2v2h-2zM12 2h2v2h-2zM14 2h2v2h-2zM16 2h2v2h-2zM18 2h2v2h-2zM20 2h2v2h-2zM22 2h2v2h-2zM24 2h2v2h-2zM26 2h2v2h-2zM8 4h2v2H8zM10 4h2v2h-2zM12 4h2v2h-2zM14 4h2v2h-2zM16 4h2v2h-2zM18 4h2v2h-2zM20 4h2v2h-2zM22 4h2v2h-2zM24 4h2v2h-2zM26 4h2v2h-2zM28 4h2v2h-2zM30 4h2v2h-2zM6 6h2v2H6zM8 6h2v2H8zM10 6h2v2h-2zM12 6h2v2h-2zM14 6h2v2h-2zM16 6h2v2h-2zM18 6h2v2h-2zM20 6h2v2h-2zM22 6h2v2h-2zM24 6h2v2h-2zM26 6h2v2h-2zM28 6h2v2h-2zM30 6h2v2h-2zM32 6h2v2h-2zM4 8h2v2H4zM6 8h2v2H6zM8 8h2v2H8zM10 8h2v2h-2zM12 8h2v2h-2zM14 8h2v2h-2zM16 8h2v2h-2zM18 8h2v2h-2zM20 8h2v2h-2zM22 8h2v2h-2zM24 8h2v2h-2zM26 8h2v2h-2zM28 8h2v2h-2zM30 8h2v2h-2zM32 8h2v2h-2zM34 8h2v2h-2zM4 10h2v2H4zM6 10h2v2H6zM8 10h2v2H8zM10 10h2v2h-2zM14 10h2v2h-2zM24 10h2v2h-2zM28 10h2v2h-2zM30 10h2v2h-2zM32 10h2v2h-2zM34 10h2v2h-2zM2 12h2v2H2zM4 12h2v2H4zM6 12h2v2H6zM8 12h2v2H8zM10 12h2v2h-2zM28 12h2v2h-2zM30 12h2v2h-2zM32 12h2v2h-2zM34 12h2v2h-2zM36 12h2v2h-2zM2 14h2v2H2zM4 14h2v2H4zM6 14h2v2H6zM8 14h2v2H8zM10 14h2v2h-2zM28 14h2v2h-2zM30 14h2v2h-2zM32 14h2v2h-2zM34 14h2v2h-2zM36 14h2v2h-2zM0 16h2v2H0zM2 16h2v2H2zM4 16h2v2H4zM6 16h2v2H6zM8 16h2v2H8zM10 16h2v2h-2zM28 16h2v2h-2zM30 16h2v2h-2zM32 16h2v2h-2zM34 16h2v2h-2zM36 16h2v2h-2zM38 16h2v2h-2zM0 18h2v2H0zM2 18h2v2H2zM4 18h2v2H4zM6 18h2v2H6zM32 18h2v2h-2zM34 18h2v2h-2zM36 18h2v2h-2zM38 18h2v2h-2zM0 20h2v2H0zM2 20h2v2H2zM8 20h2v2H8zM10 20h2v2h-2zM12 20h2v2h-2zM26 20h2v2h-2zM28 20h2v2h-2zM30 20h2v2h-2zM36 20h2v2h-2zM38 20h2v2h-2zM0 22h2v2H0zM2 22h2v2H2zM4 22h2v2H4zM6 22h2v2H6zM8 22h2v2H8zM10 22h2v2h-2zM14 22h2v2h-2zM24 22h2v2h-2zM28 22h2v2h-2zM30 22h2v2h-2zM32 22h2v2h-2zM34 22h2v2h-2zM36 22h2v2h-2zM38 22h2v2h-2zM2 24h2v2H2zM4 24h2v2H4zM6 24h2v2H6zM8 24h2v2H8zM12 24h2v2h-2zM14 24h2v2h-2zM16 24h2v2h-2zM22 24h2v2h-2zM24 24h2v2h-2zM26 24h2v2h-2zM30 24h2v2h-2zM32 24h2v2h-2zM34 24h2v2h-2zM36 24h2v2h-2zM2 26h2v2H2zM4 26h2v2H4zM6 26h2v2H6zM8 26h2v2H8zM10 26h2v2h-2zM12 26h2v2h-2zM14 26h2v2h-2zM24 26h2v2h-2zM26 26h2v2h-2zM28 26h2v2h-2zM30 26h2v2h-2zM32 26h2v2h-2zM34 26h2v2h-2zM36 26h2v2h-2zM4 28h2v2H4zM6 28h2v2H6zM10 28h2v2h-2zM12 28h2v2h-2zM14 28h2v2h-2zM24 28h2v2h-2zM26 28h2v2h-2zM28 28h2v2h-2zM30 28h2v2h-2zM32 28h2v2h-2zM34 28h2v2h-2zM4 30h2v2H4zM6 30h2v2H6zM8 30h2v2H8zM26 30h2v2h-2zM28 30h2v2h-2zM30 30h2v2h-2zM32 30h2v2h-2zM34 30h2v2h-2zM6 32h2v2H6zM8 32h2v2H8zM10 32h2v2h-2zM12 32h2v2h-2zM26 32h2v2h-2zM28 32h2v2h-2zM30 32h2v2h-2zM32 32h2v2h-2zM8 34h2v2H8zM10 34h2v2h-2zM12 34h2v2h-2zM26 34h2v2h-2zM28 34h2v2h-2zM30 34h2v2h-2zM12 36h2v2h-2zM26 36h2v2h-2z"/></svg>