<svg width="20" height="20" xmlns="http://www.w3.org/2000/svg" shape-rendering="crispEdges"><path d="M9 3h1v1H9zM10 3h1v1h-1zM8 4h1v1H8zM9 4h1v1H9zM10 4h1v1h-1zM11 4h1v1h-1zM6 5h1v1H6zM7 5h1v1H7z"/><path fill="#13121D" d="M8 5h1v1H8zM9 5h1v1H9zM10 5h1v1h-1zM11 5h1v1h-1z"/><path d="M12 5h1v1h-1zM13 5h1v1h-1zM5 6h1v1H5z"/><path fill="#13121D" d="M6 6h1v1H6zM7 6h1v1H7zM8 6h1v1H8zM9 6h1v1H9zM10 6h1v1h-1zM11 6h1v1h-1zM12 6h1v1h-1zM13 6h1v1h-1z"/><path d="M14 6h1v1h-1zM3 7h1v1H3zM4 7h1v1H4z"/><path fill="#13121D" d="M5 7h1v1H5zM6 7h1v1H6zM7 7h1v1H7zM8 7h1v1H8zM9 7h1v1H9zM10 7h1v1h-1zM11 7h1v1h-1zM12 7h1v1h-1zM13 7h1v1h-1zM14 7h1v1h-1z"/><path d="M15 7h1v1h-1zM16 7h1v1h-1zM2 8h1v1H2z"/><path fill="#13121D" d="M3 8h1v1H3zM4 8h1v1H4zM5 8h1v1H5zM6 8h1v1H6zM7 8h1v1H7zM8 8h1v1H8zM9 8h1v1H9zM10 8h1v1h-1zM11 8h1v1h-1zM12 8h1v1h-1zM13 8h1v1h-1zM14 8h1v1h-1zM15 8h1v1h-1zM16 8h1v1h-1z"/><path d="M17 8h1v1h-1zM3 9h1v1H3z"/><path fill="#222034" d="M4 9h1v1H4z"/><path fill="#13121D" d="M5 9h1v1H5zM6 9h1v1H6zM7 9h1v1H7z"/><path fill="#D9A066" d="M8 9h1v1H8zM9 9h1v1H9z"/><path fill="#13121D" d="M10 9h1v1h-1zM11 9h1v1h-1zM12 9h1v1h-1zM13 9h1v1h-1zM14 9h1v1h-1z"/><path fill="#222034" d="M15 9h1v1h-1z"/><path d="M16 9h1v1h-1zM4 10h1v1H4z"/><path fill="#222034" d="M5 10h1v1H5zM6 10h1v1H6z"/><path fill="#D9A066" d="M7 10h1v1H7zM8 10h1v1H8z"/><path fill="#13121D" d="M9 10h1v1H9zM10 10h1v1h-1zM11 10h1v1h-1zM12 10h1v1h-1z"/><path fill="#222034" d="M13 10h1v1h-1zM14 10h1v1h-1z"/><path d="M15 10h1v1h-1zM5 11h1v1H5z"/><path fill="#D9A066" d="M6 11h1v1H6zM7 11h1v1H7z"/><path fill="#222034" d="M8 11h1v1H8z"/><path fill="#13121D" d="M9 11h1v1H9zM10 11h1v1h-1z"/><path fill="#222034" d="M11 11h1v1h-1zM12 11h1v1h-1zM13 11h1v1h-1z"/><path d="M14 11h1v1h-1z"/><path fill="#D9A066" d="M5 12h1v1H5z"/><path d="M6 12h1v1H6z"/><path fill="#222034" d="M7 12h1v1H7zM8 12h1v1H8zM9 12h1v1H9zM10 12h1v1h-1zM11 12h1v1h-1zM12 12h1v1h-1z"/><path d="M13 12h1v1h-1z"/><path fill="#D9A066" d="M4 13h1v1H4z"/><path fill="#BF8C59" d="M5 13h1v1H5z"/><path d="M6 13h1v1H6zM7 13h1v1H7z"/><path fill="#222034" d="M8 13h1v1H8zM9 13h1v1H9zM10 13h1v1h-1zM11 13h1v1h-1z"/><path d="M12 13h1v1h-1zM13 13h1v1h-1z"/><path fill="#D9A066" d="M4 14h1v1H4z"/><path fill="#BF8C59" d="M5 14h1v1H5z"/><path d="M6 14h1v1H6z"/><path fill="#222034" d="M7 14h1v1H7z"/><path d="M8 14h1v1H8z"/><path fill="#222034" d="M9 14h1v1H9zM10 14h1v1h-1z"/><path d="M11 14h1v1h-1z"/><path fill="#222034" d="M12 14h1v1h-1z"/><path d="M13 14h1v1h-1z"/><path fill="#D9A066" d="M3 15h1v1H3z"/><path fill="#BF8C59" d="M4 15h1v1H4z"/><path d="M6 15h1v1H6z"/><path fill="#222034" d="M7 15h1v1H7zM8 15h1v1H8z"/><path d="M9 15h1v1H9zM10 15h1v1h-1z"/><path fill="#222034" d="M11 15h1v1h-1zM12 15h1v1h-1z"/><path d="M13 15h1v1h-1z"/><path fill="#BF8C59" d="M3 16h1v1H3zM4 16h1v1H4z"/><path d="M7 16h1v1H7zM8 16h1v1H8zM9 16h1v1H9zM10 16h1v1h-1zM11 16h1v1h-1zM12 16h1v1h-1zM9 17h1v1H9zM10 17h1v1h-1z"/></svg>