<svg width="40" height="40" xmlns="http://www.w3.org/2000/svg" shape-rendering="crispEdges"><path d="M4 0h2v2H4zM6 0h2v2H6zM8 0h2v2H8zM10 0h2v2h-2zM12 0h2v2h-2zM14 0h2v2h-2zM16 0h2v2h-2zM18 0h2v2h-2zM20 0h2v2h-2zM22 0h2v2h-2zM24 0h2v2h-2zM26 0h2v2h-2zM28 0h2v2h-2zM30 0h2v2h-2zM32 0h2v2h-2zM34 0h2v2h-2zM2 2h2v2H2zM4 2h2v2H4zM6 2h2v2H6zM8 2h2v2H8zM10 2h2v2h-2zM12 2h2v2h-2zM14 2h2v2h-2zM16 2h2v2h-2zM18 2h2v2h-2zM20 2h2v2h-2zM22 2h2v2h-2zM24 2h2v2h-2zM26 2h2v2h-2zM28 2h2v2h-2zM30 2h2v2h-2zM32 2h2v2h-2zM34 2h2v2h-2zM36 2h2v2h-2zM0 4h2v2H0zM2 4h2v2H2zM4 4h2v2H4zM6 4h2v2H6zM12 4h2v2h-2zM14 4h2v2h-2zM16 4h2v2h-2zM18 4h2v2h-2zM20 4h2v2h-2zM22 4h2v2h-2zM24 4h2v2h-2zM26 4h2v2h-2zM28 4h2v2h-2zM30 4h2v2h-2zM32 4h2v2h-2zM34 4h2v2h-2zM36 4h2v2h-2zM38 4h2v2h-2zM0 6h2v2H0zM2 6h2v2H2zM4 6h2v2H4zM6 6h2v2H6zM12 6h2v2h-2zM14 6h2v2h-2zM16 6h2v2h-2zM18 6h2v2h-2zM20 6h2v2h-2zM22 6h2v2h-2zM24 6h2v2h-2zM26 6h2v2h-2zM28 6h2v2h-2zM30 6h2v2h-2zM32 6h2v2h-2zM34 6h2v2h-2zM36 6h2v2h-2zM38 6h2v2h-2zM0 8h2v2H0zM2 8h2v2H2zM4 8h2v2H4zM6 8h2v2H6zM8 8h2v2H8zM10 8h2v2h-2zM12 8h2v2h-2zM14 8h2v2h-2zM16 8h2v2h-2zM18 8h2v2h-2zM20 8h2v2h-2zM22 8h2v2h-2zM24 8h2v2h-2zM26 8h2v2h-2zM28 8h2v2h-2zM30 8h2v2h-2zM32 8h2v2h-2zM34 8h2v2h-2zM36 8h2v2h-2zM38 8h2v2h-2zM0 10h2v2H0zM2 10h2v2H2zM4 10h2v2H4zM6 10h2v2H6zM8 10h2v2H8zM10 10h2v2h-2zM12 10h2v2h-2zM14 10h2v2h-2zM16 10h2v2h-2zM18 10h2v2h-2zM20 10h2v2h-2zM22 10h2v2h-2zM24 10h2v2h-2zM26 10h2v2h-2zM28 10h2v2h-2zM30 10h2v2h-2zM32 10h2v2h-2zM34 10h2v2h-2zM36 10h2v2h-2zM38 10h2v2h-2zM0 12h2v2H0zM2 12h2v2H2zM4 12h2v2H4zM6 12h2v2H6zM12 12h2v2h-2zM14 12h2v2h-2zM28 12h2v2h-2zM30 12h2v2h-2zM32 12h2v2h-2zM34 12h2v2h-2zM36 12h2v2h-2zM38 12h2v2h-2zM0 14h2v2H0zM2 14h2v2H2zM4 14h2v2H4zM6 14h2v2H6zM12 14h2v2h-2zM14 14h2v2h-2zM30 14h2v2h-2zM32 14h2v2h-2zM34 14h2v2h-2zM36 14h2v2h-2zM38 14h2v2h-2zM0 16h2v2H0zM2 16h2v2H2zM4 16h2v2H4zM6 16h2v2H6zM12 16h2v2h-2zM14 16h2v2h-2zM20 16h2v2h-2zM22 16h2v2h-2zM24 16h2v2h-2zM32 16h2v2h-2zM34 16h2v2h-2zM36 16h2v2h-2zM38 16h2v2h-2zM0 18h2v2H0zM2 18h2v2H2zM4 18h2v2H4zM6 18h2v2H6zM12 18h2v2h-2zM14 18h2v2h-2zM20 18h2v2h-2zM22 18h2v2h-2zM24 18h2v2h-2zM26 18h2v2h-2zM34 18h2v2h-2zM36 18h2v2h-2zM38 18h2v2h-2zM0 20h2v2H0zM2 20h2v2H2zM4 20h2v2H4zM6 20h2v2H6zM12 20h2v2h-2zM14 20h2v2h-2zM20 20h2v2h-2zM22 20h2v2h-2zM24 20h2v2h-2zM26 20h2v2h-2zM28 20h2v2h-2zM34 20h2v2h-2zM36 20h2v2h-2zM38 20h2v2h-2zM0 22h2v2H0zM2 22h2v2H2zM4 22h2v2H4zM6 22h2v2H6zM12 22h2v2h-2zM14 22h2v2h-2zM20 22h2v2h-2zM22 22h2v2h-2zM24 22h2v2h-2zM26 22h2v2h-2zM28 22h2v2h-2zM34 22h2v2h-2zM36 22h2v2h-2zM38 22h2v2h-2zM0 24h2v2H0zM2 24h2v2H2zM4 24h2v2H4zM6 24h2v2H6zM12 24h2v2h-2zM14 24h2v2h-2zM20 24h2v2h-2zM22 24h2v2h-2zM24 24h2v2h-2zM26 24h2v2h-2zM28 24h2v2h-2zM34 24h2v2h-2zM36 24h2v2h-2zM38 24h2v2h-2zM0 26h2v2H0zM2 26h2v2H2zM4 26h2v2H4zM6 26h2v2H6zM12 26h2v2h-2zM14 26h2v2h-2zM20 26h2v2h-2zM22 26h2v2h-2zM24 26h2v2h-2zM26 26h2v2h-2zM28 26h2v2h-2zM34 26h2v2h-2zM36 26h2v2h-2zM38 26h2v2h-2zM0 28h2v2H0zM2 28h2v2H2zM4 28h2v2H4zM6 28h2v2H6zM12 28h2v2h-2zM14 28h2v2h-2zM20 28h2v2h-2zM22 28h2v2h-2zM24 28h2v2h-2zM26 28h2v2h-2zM28 28h2v2h-2zM34 28h2v2h-2zM36 28h2v2h-2zM38 28h2v2h-2zM0 30h2v2H0zM2 30h2v2H2zM4 30h2v2H4zM6 30h2v2H6zM12 30h2v2h-2zM14 30h2v2h-2zM20 30h2v2h-2zM22 30h2v2h-2zM24 30h2v2h-2zM26 30h2v2h-2zM28 30h2v2h-2zM34 30h2v2h-2zM36 30h2v2h-2zM38 30h2v2h-2zM0 32h2v2H0zM2 32h2v2H2zM4 32h2v2H4zM6 32h2v2H6zM12 32h2v2h-2zM14 32h2v2h-2zM20 32h2v2h-2zM22 32h2v2h-2zM24 32h2v2h-2zM26 32h2v2h-2zM28 32h2v2h-2zM34 32h2v2h-2zM36 32h2v2h-2zM38 32h2v2h-2zM0 34h2v2H0zM2 34h2v2H2zM4 34h2v2H4zM6 34h2v2H6zM12 34h2v2h-2zM14 34h2v2h-2zM20 34h2v2h-2zM22 34h2v2h-2zM24 34h2v2h-2zM26 34h2v2h-2zM28 34h2v2h-2zM34 34h2v2h-2zM36 34h2v2h-2zM38 34h2v2h-2zM2 36h2v2H2zM4 36h2v2H4zM6 36h2v2H6zM8 36h2v2H8zM10 36h2v2h-2zM12 36h2v2h-2zM14 36h2v2h-2zM16 36h2v2h-2zM18 36h2v2h-2zM20 36h2v2h-2zM22 36h2v2h-2zM24 36h2v2h-2zM26 36h2v2h-2zM28 36h2v2h-2zM30 36h2v2h-2zM32 36h2v2h-2zM34 36h2v2h-2zM36 36h2v2h-2zM4 38h2v2H4zM6 38h2v2H6zM8 38h2v2H8zM10 38h2v2h-2zM12 38h2v2h-2zM14 38h2v2h-2zM16 38h2v2h-2zM18 38h2v2h-2zM20 38h2v2h-2zM22 38h2v2h-2zM24 38h2v2h-2zM26 38h2v2h-2zM28 38h2v2h-2zM30 38h2v2h-2zM32 38h2v2h-2zM34 38h2v2h-2z"/></svg>