<svg width="20" height="20" xmlns="http://www.w3.org/2000/svg" shape-rendering="crispEdges"><path fill="#F2EC75" d="M8 1h1v1H8zM9 1h1v1H9zM10 1h1v1h-1zM11 1h1v1h-1zM12 1h1v1h-1zM13 1h1v1h-1zM14 1h1v1h-1zM15 1h1v1h-1z"/><path fill="#E5DF54" d="M16 1h1v1h-1z"/><path fill="#F2EC75" d="M8 2h1v1H8z"/><path fill="#E5DF54" d="M9 2h1v1H9zM10 2h1v1h-1zM11 2h1v1h-1zM12 2h1v1h-1zM13 2h1v1h-1zM14 2h1v1h-1z"/><path fill="#DDD522" d="M15 2h1v1h-1z"/><path fill="#F2EC75" d="M7 3h1v1H7zM8 3h1v1H8z"/><path fill="#E5DF54" d="M9 3h1v1H9z"/><path fill="#F9F7BF" d="M10 3h1v1h-1z"/><path fill="#E5DF54" d="M11 3h1v1h-1zM12 3h1v1h-1zM13 3h1v1h-1z"/><path fill="#DDD522" d="M14 3h1v1h-1z"/><path fill="#F2EC75" d="M7 4h1v1H7z"/><path fill="#E5DF54" d="M8 4h1v1H8zM9 4h1v1H9zM10 4h1v1h-1zM11 4h1v1h-1zM12 4h1v1h-1z"/><path fill="#DDD522" d="M13 4h1v1h-1z"/><path fill="#F2EC75" d="M6 5h1v1H6zM7 5h1v1H7z"/><path fill="#E5DF54" d="M8 5h1v1H8z"/><path fill="#F9F7BF" d="M9 5h1v1H9z"/><path fill="#E5DF54" d="M10 5h1v1h-1zM11 5h1v1h-1z"/><path fill="#DDD522" d="M12 5h1v1h-1z"/><path fill="#F2EC75" d="M6 6h1v1H6z"/><path fill="#E5DF54" d="M7 6h1v1H7zM8 6h1v1H8z"/><path fill="#F9F7BF" d="M9 6h1v1H9z"/><path fill="#E5DF54" d="M10 6h1v1h-1z"/><path fill="#DDD522" d="M11 6h1v1h-1z"/><path fill="#F2EC75" d="M5 7h1v1H5zM6 7h1v1H6z"/><path fill="#E5DF54" d="M7 7h1v1H7z"/><path fill="#F9F7BF" d="M8 7h1v1H8z"/><path fill="#E5DF54" d="M9 7h1v1H9z"/><path fill="#DDD522" d="M10 7h1v1h-1z"/><path fill="#F2EC75" d="M5 8h1v1H5z"/><path fill="#E5DF54" d="M6 8h1v1H6z"/><path fill="#F9F7BF" d="M7 8h1v1H7zM8 8h1v1H8z"/><path fill="#E5DF54" d="M9 8h1v1H9zM10 8h1v1h-1zM11 8h1v1h-1zM12 8h1v1h-1zM13 8h1v1h-1zM14 8h1v1h-1z"/><path fill="#DDD522" d="M15 8h1v1h-1z"/><path fill="#F2EC75" d="M4 9h1v1H4zM5 9h1v1H5z"/><path fill="#E5DF54" d="M6 9h1v1H6z"/><path fill="#F9F7BF" d="M7 9h1v1H7z"/><path fill="#E5DF54" d="M8 9h1v1H8zM9 9h1v1H9zM10 9h1v1h-1zM11 9h1v1h-1z"/><path fill="#F9F7BF" d="M12 9h1v1h-1z"/><path fill="#E5DF54" d="M13 9h1v1h-1z"/><path fill="#DDD522" d="M14 9h1v1h-1z"/><path fill="#F2EC75" d="M4 10h1v1H4z"/><path fill="#E5DF54" d="M5 10h1v1H5zM6 10h1v1H6zM7 10h1v1H7zM8 10h1v1H8zM9 10h1v1H9zM10 10h1v1h-1zM11 10h1v1h-1zM12 10h1v1h-1z"/><path fill="#DDD522" d="M13 10h1v1h-1z"/><path fill="#F2EC75" d="M7 11h1v1H7z"/><path fill="#E5DF54" d="M8 11h1v1H8zM9 11h1v1H9zM10 11h1v1h-1zM11 11h1v1h-1z"/><path fill="#DDD522" d="M12 11h1v1h-1z"/><path fill="#F2EC75" d="M7 12h1v1H7z"/><path fill="#E5DF54" d="M8 12h1v1H8zM9 12h1v1H9zM10 12h1v1h-1z"/><path fill="#DDD522" d="M11 12h1v1h-1z"/><path fill="#F2EC75" d="M6 13h1v1H6zM7 13h1v1H7z"/><path fill="#E5DF54" d="M8 13h1v1H8zM9 13h1v1H9z"/><path fill="#DDD522" d="M10 13h1v1h-1z"/><path fill="#F2EC75" d="M6 14h1v1H6z"/><path fill="#E5DF54" d="M7 14h1v1H7zM8 14h1v1H8z"/><path fill="#DDD522" d="M9 14h1v1H9z"/><path fill="#F2EC75" d="M5 15h1v1H5zM6 15h1v1H6z"/><path fill="#E5DF54" d="M7 15h1v1H7z"/><path fill="#DDD522" d="M8 15h1v1H8z"/><path fill="#F2EC75" d="M5 16h1v1H5z"/><path fill="#E5DF54" d="M6 16h1v1H6z"/><path fill="#DDD522" d="M7 16h1v1H7z"/><path fill="#F2EC75" d="M4 17h1v1H4zM5 17h1v1H5z"/><path fill="#DDD522" d="M6 17h1v1H6z"/><path fill="#F2EC75" d="M4 18h1v1H4z"/><path fill="#DDD522" d="M5 18h1v1H5z"/></svg>