<svg width="20" height="20" xmlns="http://www.w3.org/2000/svg" shape-rendering="crispEdges"><path fill="#8B8B8B" d="M1 3h1v1H1zM2 3h1v1H2zM3 3h1v1H3zM4 3h1v1H4zM5 3h1v1H5zM6 3h1v1H6zM7 3h1v1H7zM8 3h1v1H8zM9 3h1v1H9zM10 3h1v1h-1zM11 3h1v1h-1zM12 3h1v1h-1zM13 3h1v1h-1zM14 3h1v1h-1zM15 3h1v1h-1zM16 3h1v1h-1zM17 3h1v1h-1zM18 3h1v1h-1zM1 4h1v1H1z"/><path fill="#BFBFBF" d="M2 4h1v1H2z"/><path fill="#FFF" d="M3 4h1v1H3zM4 4h1v1H4zM5 4h1v1H5zM6 4h1v1H6zM7 4h1v1H7zM8 4h1v1H8zM9 4h1v1H9zM10 4h1v1h-1zM11 4h1v1h-1zM12 4h1v1h-1zM13 4h1v1h-1zM14 4h1v1h-1zM15 4h1v1h-1zM16 4h1v1h-1z"/><path fill="#BFBFBF" d="M17 4h1v1h-1z"/><path fill="#8B8B8B" d="M18 4h1v1h-1zM1 5h1v1H1z"/><path fill="#F3F3F3" d="M2 5h1v1H2z"/><path fill="#BFBFBF" d="M3 5h1v1H3z"/><path fill="#FFF" d="M4 5h1v1H4zM5 5h1v1H5zM6 5h1v1H6zM7 5h1v1H7zM8 5h1v1H8zM9 5h1v1H9zM10 5h1v1h-1zM11 5h1v1h-1zM12 5h1v1h-1zM13 5h1v1h-1zM14 5h1v1h-1zM15 5h1v1h-1z"/><path fill="#BFBFBF" d="M16 5h1v1h-1z"/><path fill="#F3F3F3" d="M17 5h1v1h-1z"/><path fill="#8B8B8B" d="M18 5h1v1h-1zM1 6h1v1H1z"/><path fill="#FFF" d="M2 6h1v1H2z"/><path fill="#F3F3F3" d="M3 6h1v1H3z"/><path fill="#BFBFBF" d="M4 6h1v1H4z"/><path fill="#FFF" d="M5 6h1v1H5zM6 6h1v1H6zM7 6h1v1H7zM8 6h1v1H8zM9 6h1v1H9zM10 6h1v1h-1zM11 6h1v1h-1zM12 6h1v1h-1zM13 6h1v1h-1zM14 6h1v1h-1z"/><path fill="#BFBFBF" d="M15 6h1v1h-1z"/><path fill="#F3F3F3" d="M16 6h1v1h-1z"/><path fill="#FFF" d="M17 6h1v1h-1z"/><path fill="#8B8B8B" d="M18 6h1v1h-1zM1 7h1v1H1z"/><path fill="#FFF" d="M2 7h1v1H2zM3 7h1v1H3z"/><path fill="#F3F3F3" d="M4 7h1v1H4z"/><path fill="#BFBFBF" d="M5 7h1v1H5z"/><path fill="#FFF" d="M6 7h1v1H6zM7 7h1v1H7zM8 7h1v1H8zM9 7h1v1H9zM10 7h1v1h-1zM11 7h1v1h-1zM12 7h1v1h-1zM13 7h1v1h-1z"/><path fill="#BFBFBF" d="M14 7h1v1h-1z"/><path fill="#F3F3F3" d="M15 7h1v1h-1z"/><path fill="#FFF" d="M16 7h1v1h-1zM17 7h1v1h-1z"/><path fill="#8B8B8B" d="M18 7h1v1h-1zM1 8h1v1H1z"/><path fill="#FFF" d="M2 8h1v1H2zM3 8h1v1H3zM4 8h1v1H4z"/><path fill="#F3F3F3" d="M5 8h1v1H5z"/><path fill="#BFBFBF" d="M6 8h1v1H6z"/><path fill="#FFF" d="M7 8h1v1H7zM8 8h1v1H8zM9 8h1v1H9zM10 8h1v1h-1zM11 8h1v1h-1zM12 8h1v1h-1z"/><path fill="#BFBFBF" d="M13 8h1v1h-1z"/><path fill="#F3F3F3" d="M14 8h1v1h-1z"/><path fill="#FFF" d="M15 8h1v1h-1zM16 8h1v1h-1zM17 8h1v1h-1z"/><path fill="#8B8B8B" d="M18 8h1v1h-1zM1 9h1v1H1z"/><path fill="#FFF" d="M2 9h1v1H2zM3 9h1v1H3zM4 9h1v1H4zM5 9h1v1H5z"/><path fill="#F3F3F3" d="M6 9h1v1H6z"/><path fill="#BFBFBF" d="M7 9h1v1H7z"/><path fill="#FFF" d="M8 9h1v1H8zM9 9h1v1H9zM10 9h1v1h-1zM11 9h1v1h-1z"/><path fill="#BFBFBF" d="M12 9h1v1h-1z"/><path fill="#F3F3F3" d="M13 9h1v1h-1z"/><path fill="#FFF" d="M14 9h1v1h-1zM15 9h1v1h-1zM16 9h1v1h-1zM17 9h1v1h-1z"/><path fill="#8B8B8B" d="M18 9h1v1h-1zM1 10h1v1H1z"/><path fill="#FFF" d="M2 10h1v1H2zM3 10h1v1H3zM4 10h1v1H4zM5 10h1v1H5zM6 10h1v1H6z"/><path fill="#8B8B8B" d="M7 10h1v1H7z"/><path fill="#BFBFBF" d="M8 10h1v1H8z"/><path fill="#FFF" d="M9 10h1v1H9zM10 10h1v1h-1z"/><path fill="#BFBFBF" d="M11 10h1v1h-1z"/><path fill="#8B8B8B" d="M12 10h1v1h-1z"/><path fill="#FFF" d="M13 10h1v1h-1zM14 10h1v1h-1zM15 10h1v1h-1zM16 10h1v1h-1zM17 10h1v1h-1z"/><path fill="#8B8B8B" d="M18 10h1v1h-1zM1 11h1v1H1z"/><path fill="#FFF" d="M2 11h1v1H2zM3 11h1v1H3zM4 11h1v1H4zM5 11h1v1H5z"/><path fill="#8B8B8B" d="M6 11h1v1H6z"/><path fill="#F3F3F3" d="M7 11h1v1H7zM8 11h1v1H8z"/><path fill="#BFBFBF" d="M9 11h1v1H9zM10 11h1v1h-1z"/><path fill="#F3F3F3" d="M11 11h1v1h-1zM12 11h1v1h-1z"/><path fill="#8B8B8B" d="M13 11h1v1h-1z"/><path fill="#FFF" d="M14 11h1v1h-1zM15 11h1v1h-1zM16 11h1v1h-1zM17 11h1v1h-1z"/><path fill="#8B8B8B" d="M18 11h1v1h-1zM1 12h1v1H1z"/><path fill="#FFF" d="M2 12h1v1H2zM3 12h1v1H3zM4 12h1v1H4z"/><path fill="#8B8B8B" d="M5 12h1v1H5z"/><path fill="#F3F3F3" d="M6 12h1v1H6z"/><path fill="#FFF" d="M7 12h1v1H7zM8 12h1v1H8z"/><path fill="#F3F3F3" d="M9 12h1v1H9zM10 12h1v1h-1z"/><path fill="#FFF" d="M11 12h1v1h-1zM12 12h1v1h-1z"/><path fill="#F3F3F3" d="M13 12h1v1h-1z"/><path fill="#8B8B8B" d="M14 12h1v1h-1z"/><path fill="#FFF" d="M15 12h1v1h-1zM16 12h1v1h-1zM17 12h1v1h-1z"/><path fill="#8B8B8B" d="M18 12h1v1h-1zM1 13h1v1H1z"/><path fill="#FFF" d="M2 13h1v1H2zM3 13h1v1H3z"/><path fill="#8B8B8B" d="M4 13h1v1H4z"/><path fill="#F3F3F3" d="M5 13h1v1H5z"/><path fill="#FFF" d="M6 13h1v1H6zM7 13h1v1H7zM8 13h1v1H8zM9 13h1v1H9zM10 13h1v1h-1zM11 13h1v1h-1zM12 13h1v1h-1zM13 13h1v1h-1z"/><path fill="#F3F3F3" d="M14 13h1v1h-1z"/><path fill="#8B8B8B" d="M15 13h1v1h-1z"/><path fill="#FFF" d="M16 13h1v1h-1zM17 13h1v1h-1z"/><path fill="#8B8B8B" d="M18 13h1v1h-1zM1 14h1v1H1z"/><path fill="#FFF" d="M2 14h1v1H2z"/><path fill="#8B8B8B" d="M3 14h1v1H3z"/><path fill="#F3F3F3" d="M4 14h1v1H4z"/><path fill="#FFF" d="M5 14h1v1H5zM6 14h1v1H6zM7 14h1v1H7zM8 14h1v1H8zM9 14h1v1H9zM10 14h1v1h-1zM11 14h1v1h-1zM12 14h1v1h-1zM13 14h1v1h-1zM14 14h1v1h-1z"/><path fill="#F3F3F3" d="M15 14h1v1h-1z"/><path fill="#8B8B8B" d="M16 14h1v1h-1z"/><path fill="#FFF" d="M17 14h1v1h-1z"/><path fill="#8B8B8B" d="M18 14h1v1h-1zM1 15h1v1H1zM2 15h1v1H2z"/><path fill="#F3F3F3" d="M3 15h1v1H3z"/><path fill="#FFF" d="M4 15h1v1H4zM5 15h1v1H5zM6 15h1v1H6zM7 15h1v1H7zM8 15h1v1H8zM9 15h1v1H9zM10 15h1v1h-1zM11 15h1v1h-1zM12 15h1v1h-1zM13 15h1v1h-1zM14 15h1v1h-1zM15 15h1v1h-1z"/><path fill="#F3F3F3" d="M16 15h1v1h-1z"/><path fill="#8B8B8B" d="M17 15h1v1h-1zM18 15h1v1h-1zM1 16h1v1H1zM2 16h1v1H2zM3 16h1v1H3zM4 16h1v1H4zM5 16h1v1H5zM6 16h1v1H6zM7 16h1v1H7zM8 16h1v1H8zM9 16h1v1H9zM10 16h1v1h-1zM11 16h1v1h-1zM12 16h1v1h-1zM13 16h1v1h-1zM14 16h1v1h-1zM15 16h1v1h-1zM16 16h1v1h-1zM17 16h1v1h-1zM18 16h1v1h-1z"/></svg>