<svg width="20" height="20" xmlns="http://www.w3.org/2000/svg" shape-rendering="crispEdges"><path d="M8 2h1v1H8zM9 2h1v1H9zM10 2h1v1h-1zM11 2h1v1h-1zM7 3h1v1H7zM8 3h1v1H8zM9 3h1v1H9zM10 3h1v1h-1zM11 3h1v1h-1zM12 3h1v1h-1zM6 4h1v1H6zM7 4h1v1H7zM8 4h1v1H8zM9 4h1v1H9zM10 4h1v1h-1zM11 4h1v1h-1zM12 4h1v1h-1zM13 4h1v1h-1zM6 5h1v1H6zM7 5h1v1H7zM8 5h1v1H8zM9 5h1v1H9zM10 5h1v1h-1zM11 5h1v1h-1zM12 5h1v1h-1zM13 5h1v1h-1zM6 6h1v1H6zM7 6h1v1H7zM8 6h1v1H8zM9 6h1v1H9zM10 6h1v1h-1zM11 6h1v1h-1zM12 6h1v1h-1zM13 6h1v1h-1zM6 7h1v1H6zM7 7h1v1H7zM8 7h1v1H8zM9 7h1v1H9zM10 7h1v1h-1zM11 7h1v1h-1zM12 7h1v1h-1zM13 7h1v1h-1zM7 8h1v1H7zM8 8h1v1H8zM9 8h1v1H9zM10 8h1v1h-1zM11 8h1v1h-1zM12 8h1v1h-1zM8 9h1v1H8zM9 9h1v1H9zM10 9h1v1h-1zM11 9h1v1h-1zM6 11h1v1H6zM7 11h1v1H7zM8 11h1v1H8zM9 11h1v1H9zM10 11h1v1h-1zM11 11h1v1h-1zM12 11h1v1h-1zM13 11h1v1h-1zM4 12h1v1H4zM5 12h1v1H5zM6 12h1v1H6zM7 12h1v1H7zM8 12h1v1H8zM9 12h1v1H9zM10 12h1v1h-1zM11 12h1v1h-1zM12 12h1v1h-1zM13 12h1v1h-1zM14 12h1v1h-1zM15 12h1v1h-1zM3 13h1v1H3zM4 13h1v1H4zM5 13h1v1H5zM6 13h1v1H6zM7 13h1v1H7zM8 13h1v1H8zM9 13h1v1H9zM10 13h1v1h-1zM11 13h1v1h-1zM12 13h1v1h-1zM13 13h1v1h-1zM14 13h1v1h-1zM15 13h1v1h-1zM16 13h1v1h-1zM2 14h1v1H2zM3 14h1v1H3zM4 14h1v1H4zM5 14h1v1H5zM6 14h1v1H6zM7 14h1v1H7zM8 14h1v1H8zM9 14h1v1H9zM10 14h1v1h-1zM11 14h1v1h-1zM12 14h1v1h-1zM13 14h1v1h-1zM14 14h1v1h-1zM15 14h1v1h-1zM16 14h1v1h-1zM17 14h1v1h-1zM1 15h1v1H1zM2 15h1v1H2zM3 15h1v1H3zM4 15h1v1H4zM5 15h1v1H5zM6 15h1v1H6zM7 15h1v1H7zM8 15h1v1H8zM9 15h1v1H9zM10 15h1v1h-1zM11 15h1v1h-1zM12 15h1v1h-1zM13 15h1v1h-1zM14 15h1v1h-1zM15 15h1v1h-1zM16 15h1v1h-1zM17 15h1v1h-1zM18 15h1v1h-1zM1 16h1v1H1zM2 16h1v1H2zM3 16h1v1H3zM4 16h1v1H4zM5 16h1v1H5zM6 16h1v1H6zM7 16h1v1H7zM8 16h1v1H8zM9 16h1v1H9zM10 16h1v1h-1zM11 16h1v1h-1zM12 16h1v1h-1zM13 16h1v1h-1zM14 16h1v1h-1zM15 16h1v1h-1zM16 16h1v1h-1zM17 16h1v1h-1zM18 16h1v1h-1zM1 17h1v1H1zM2 17h1v1H2zM3 17h1v1H3zM4 17h1v1H4zM5 17h1v1H5zM6 17h1v1H6zM7 17h1v1H7zM8 17h1v1H8zM9 17h1v1H9zM10 17h1v1h-1zM11 17h1v1h-1zM12 17h1v1h-1zM13 17h1v1h-1zM14 17h1v1h-1zM15 17h1v1h-1zM16 17h1v1h-1zM17 17h1v1h-1zM18 17h1v1h-1zM1 18h1v1H1zM2 18h1v1H2zM3 18h1v1H3zM4 18h1v1H4zM5 18h1v1H5zM6 18h1v1H6zM7 18h1v1H7zM8 18h1v1H8zM9 18h1v1H9zM10 18h1v1h-1zM11 18h1v1h-1zM12 18h1v1h-1zM13 18h1v1h-1zM14 18h1v1h-1zM15 18h1v1h-1zM16 18h1v1h-1zM17 18h1v1h-1zM18 18h1v1h-1z"/></svg>