<svg width="20" height="20" xmlns="http://www.w3.org/2000/svg" shape-rendering="crispEdges"><path d="M6 1h1v1H6zM7 1h1v1H7zM8 1h1v1H8zM9 1h1v1H9zM10 1h1v1h-1zM11 1h1v1h-1zM12 1h1v1h-1zM13 1h1v1h-1zM3 2h1v1H3zM4 2h1v1H4zM5 2h1v1H5z"/><path fill="#902A2A" d="M6 2h1v1H6zM7 2h1v1H7zM8 2h1v1H8zM9 2h1v1H9zM10 2h1v1h-1zM11 2h1v1h-1zM12 2h1v1h-1zM13 2h1v1h-1z"/><path d="M14 2h1v1h-1zM15 2h1v1h-1zM16 2h1v1h-1zM2 3h1v1H2z"/><path fill="#902A2A" d="M3 3h1v1H3zM4 3h1v1H4zM5 3h1v1H5zM6 3h1v1H6zM7 3h1v1H7zM8 3h1v1H8zM9 3h1v1H9zM10 3h1v1h-1zM11 3h1v1h-1zM12 3h1v1h-1zM13 3h1v1h-1zM14 3h1v1h-1zM15 3h1v1h-1zM16 3h1v1h-1z"/><path d="M17 3h1v1h-1zM1 4h1v1H1z"/><path fill="#902A2A" d="M2 4h1v1H2zM3 4h1v1H3zM4 4h1v1H4zM5 4h1v1H5zM6 4h1v1H6zM7 4h1v1H7zM8 4h1v1H8zM9 4h1v1H9zM10 4h1v1h-1zM11 4h1v1h-1zM12 4h1v1h-1zM13 4h1v1h-1zM14 4h1v1h-1zM15 4h1v1h-1zM16 4h1v1h-1zM17 4h1v1h-1z"/><path d="M18 4h1v1h-1zM0 5h1v1H0z"/><path fill="#902A2A" d="M1 5h1v1H1zM2 5h1v1H2zM3 5h1v1H3zM4 5h1v1H4z"/><path fill="#752222" d="M5 5h1v1H5z"/><path fill="#AC3232" d="M6 5h1v1H6z"/><path d="M7 5h1v1H7zM8 5h1v1H8zM9 5h1v1H9zM10 5h1v1h-1zM11 5h1v1h-1zM12 5h1v1h-1z"/><path fill="#AC3232" d="M13 5h1v1h-1z"/><path fill="#752222" d="M14 5h1v1h-1z"/><path fill="#902A2A" d="M15 5h1v1h-1zM16 5h1v1h-1zM17 5h1v1h-1zM18 5h1v1h-1z"/><path d="M19 5h1v1h-1zM0 6h1v1H0z"/><path fill="#902A2A" d="M1 6h1v1H1zM2 6h1v1H2z"/><path fill="#752222" d="M3 6h1v1H3zM4 6h1v1H4z"/><path fill="#AC3232" d="M5 6h1v1H5zM6 6h1v1H6zM7 6h1v1H7zM8 6h1v1H8zM9 6h1v1H9zM10 6h1v1h-1zM11 6h1v1h-1zM12 6h1v1h-1zM13 6h1v1h-1zM14 6h1v1h-1z"/><path fill="#752222" d="M15 6h1v1h-1zM16 6h1v1h-1z"/><path fill="#902A2A" d="M17 6h1v1h-1zM18 6h1v1h-1z"/><path d="M19 6h1v1h-1zM0 7h1v1H0z"/><path fill="#902A2A" d="M1 7h1v1H1z"/><path fill="#752222" d="M2 7h1v1H2z"/><path fill="#AC3232" d="M3 7h1v1H3zM4 7h1v1H4zM5 7h1v1H5zM6 7h1v1H6zM7 7h1v1H7zM8 7h1v1H8zM9 7h1v1H9zM10 7h1v1h-1zM11 7h1v1h-1zM12 7h1v1h-1zM13 7h1v1h-1zM14 7h1v1h-1zM15 7h1v1h-1zM16 7h1v1h-1z"/><path fill="#752222" d="M17 7h1v1h-1z"/><path fill="#902A2A" d="M18 7h1v1h-1z"/><path d="M19 7h1v1h-1zM0 8h1v1H0z"/><path fill="#902A2A" d="M1 8h1v1H1z"/><path fill="#752222" d="M2 8h1v1H2z"/><path fill="#AC3232" d="M3 8h1v1H3zM4 8h1v1H4zM5 8h1v1H5zM6 8h1v1H6zM7 8h1v1H7zM8 8h1v1H8zM9 8h1v1H9zM10 8h1v1h-1zM11 8h1v1h-1zM12 8h1v1h-1zM13 8h1v1h-1zM14 8h1v1h-1zM15 8h1v1h-1zM16 8h1v1h-1z"/><path fill="#752222" d="M17 8h1v1h-1z"/><path fill="#902A2A" d="M18 8h1v1h-1z"/><path d="M19 8h1v1h-1zM0 9h1v1H0z"/><path fill="#752222" d="M1 9h1v1H1z"/><path fill="#AC3232" d="M2 9h1v1H2zM3 9h1v1H3zM4 9h1v1H4zM5 9h1v1H5zM6 9h1v1H6zM7 9h1v1H7zM8 9h1v1H8zM9 9h1v1H9zM10 9h1v1h-1zM11 9h1v1h-1zM12 9h1v1h-1zM13 9h1v1h-1zM14 9h1v1h-1zM15 9h1v1h-1zM16 9h1v1h-1zM17 9h1v1h-1z"/><path fill="#752222" d="M18 9h1v1h-1z"/><path d="M19 9h1v1h-1zM1 10h1v1H1z"/><path fill="#AC3232" d="M2 10h1v1H2zM3 10h1v1H3zM4 10h1v1H4zM5 10h1v1H5zM6 10h1v1H6zM7 10h1v1H7zM8 10h1v1H8z"/><path fill="#FFF" d="M9 10h1v1H9zM10 10h1v1h-1z"/><path fill="#AC3232" d="M11 10h1v1h-1zM12 10h1v1h-1zM13 10h1v1h-1zM14 10h1v1h-1zM15 10h1v1h-1zM16 10h1v1h-1zM17 10h1v1h-1z"/><path d="M18 10h1v1h-1zM1 11h1v1H1z"/><path fill="#AC3232" d="M2 11h1v1H2zM3 11h1v1H3zM4 11h1v1H4zM5 11h1v1H5zM6 11h1v1H6zM7 11h1v1H7z"/><path fill="#FFF" d="M8 11h1v1H8z"/><path fill="#AC3232" d="M9 11h1v1H9zM10 11h1v1h-1z"/><path fill="#FFF" d="M11 11h1v1h-1z"/><path fill="#AC3232" d="M12 11h1v1h-1zM13 11h1v1h-1zM14 11h1v1h-1zM15 11h1v1h-1zM16 11h1v1h-1zM17 11h1v1h-1z"/><path d="M18 11h1v1h-1zM1 12h1v1H1z"/><path fill="#AC3232" d="M2 12h1v1H2zM3 12h1v1H3zM4 12h1v1H4zM5 12h1v1H5zM6 12h1v1H6z"/><path fill="#FFF" d="M7 12h1v1H7z"/><path fill="#AC3232" d="M8 12h1v1H8z"/><path fill="#902A2A" d="M9 12h1v1H9zM10 12h1v1h-1z"/><path fill="#AC3232" d="M11 12h1v1h-1z"/><path fill="#FFF" d="M12 12h1v1h-1z"/><path fill="#AC3232" d="M13 12h1v1h-1zM14 12h1v1h-1zM15 12h1v1h-1zM16 12h1v1h-1zM17 12h1v1h-1z"/><path d="M18 12h1v1h-1zM1 13h1v1H1z"/><path fill="#AC3232" d="M2 13h1v1H2zM3 13h1v1H3zM4 13h1v1H4zM5 13h1v1H5zM6 13h1v1H6z"/><path fill="#FFF" d="M7 13h1v1H7z"/><path fill="#AC3232" d="M8 13h1v1H8z"/><path fill="#902A2A" d="M9 13h1v1H9zM10 13h1v1h-1z"/><path fill="#AC3232" d="M11 13h1v1h-1z"/><path fill="#FFF" d="M12 13h1v1h-1z"/><path fill="#AC3232" d="M13 13h1v1h-1zM14 13h1v1h-1zM15 13h1v1h-1zM16 13h1v1h-1zM17 13h1v1h-1z"/><path d="M18 13h1v1h-1zM1 14h1v1H1z"/><path fill="#902A2A" d="M2 14h1v1H2z"/><path fill="#AC3232" d="M3 14h1v1H3zM4 14h1v1H4zM5 14h1v1H5zM6 14h1v1H6zM7 14h1v1H7z"/><path fill="#FFF" d="M8 14h1v1H8z"/><path fill="#AC3232" d="M9 14h1v1H9zM10 14h1v1h-1z"/><path fill="#FFF" d="M11 14h1v1h-1z"/><path fill="#AC3232" d="M12 14h1v1h-1zM13 14h1v1h-1zM14 14h1v1h-1zM15 14h1v1h-1zM16 14h1v1h-1z"/><path fill="#902A2A" d="M17 14h1v1h-1z"/><path d="M18 14h1v1h-1zM1 15h1v1H1z"/><path fill="#902A2A" d="M2 15h1v1H2zM3 15h1v1H3zM4 15h1v1H4z"/><path fill="#AC3232" d="M5 15h1v1H5zM6 15h1v1H6zM7 15h1v1H7zM8 15h1v1H8z"/><path fill="#FFF" d="M9 15h1v1H9zM10 15h1v1h-1z"/><path fill="#AC3232" d="M11 15h1v1h-1zM12 15h1v1h-1zM13 15h1v1h-1zM14 15h1v1h-1z"/><path fill="#902A2A" d="M15 15h1v1h-1zM16 15h1v1h-1zM17 15h1v1h-1z"/><path d="M18 15h1v1h-1zM1 16h1v1H1z"/><path fill="#902A2A" d="M2 16h1v1H2zM3 16h1v1H3zM4 16h1v1H4zM5 16h1v1H5zM6 16h1v1H6z"/><path fill="#AC3232" d="M7 16h1v1H7zM8 16h1v1H8zM9 16h1v1H9zM10 16h1v1h-1zM11 16h1v1h-1zM12 16h1v1h-1z"/><path fill="#902A2A" d="M13 16h1v1h-1zM14 16h1v1h-1zM15 16h1v1h-1zM16 16h1v1h-1zM17 16h1v1h-1z"/><path d="M18 16h1v1h-1zM2 17h1v1H2z"/><path fill="#902A2A" d="M3 17h1v1H3zM4 17h1v1H4zM5 17h1v1H5zM6 17h1v1H6zM7 17h1v1H7zM8 17h1v1H8zM9 17h1v1H9zM10 17h1v1h-1zM11 17h1v1h-1zM12 17h1v1h-1zM13 17h1v1h-1zM14 17h1v1h-1zM15 17h1v1h-1zM16 17h1v1h-1z"/><path d="M17 17h1v1h-1zM3 18h1v1H3zM4 18h1v1H4zM5 18h1v1H5zM6 18h1v1H6zM7 18h1v1H7zM8 18h1v1H8zM9 18h1v1H9zM10 18h1v1h-1zM11 18h1v1h-1zM12 18h1v1h-1zM13 18h1v1h-1zM14 18h1v1h-1zM15 18h1v1h-1zM16 18h1v1h-1z"/></svg>